<svg width="20" height="19" viewBox="0 0 20 19" fill="none" xmlns="http://www.w3.org/2000/svg">
<path d="M13.6292 12.8914L14.0852 12.4384L13.0262 11.3744L12.5722 11.8274L13.6292 12.8914ZM15.6142 12.2484L17.5252 13.2874L18.2402 11.9694L16.3302 10.9314L15.6142 12.2484ZM17.8922 15.3514L16.4722 16.7644L17.5292 17.8274L18.9492 16.4154L17.8922 15.3514ZM15.6062 17.2184C14.1562 17.3544 10.4062 17.2334 6.34417 13.1954L5.28617 14.2584C9.71817 18.6654 13.9372 18.8814 15.7462 18.7124L15.6062 17.2184ZM6.34417 13.1954C2.47317 9.34545 1.83117 6.10845 1.75117 4.70345L0.253173 4.78845C0.353173 6.55645 1.14817 10.1444 5.28617 14.2584L6.34417 13.1954ZM7.71917 7.01545L8.00617 6.72945L6.95017 5.66645L6.66317 5.95145L7.71917 7.01545ZM8.23417 3.09445L6.97417 1.41045L5.77317 2.31045L7.03317 3.99345L8.23417 3.09445ZM2.73317 1.04345L1.16317 2.60345L2.22117 3.66745L3.79017 2.10745L2.73317 1.04345ZM7.19117 6.48345C6.66117 5.95145 6.66117 5.95145 6.66117 5.95345H6.65917L6.65617 5.95745C6.60865 6.00536 6.5661 6.05796 6.52917 6.11445C6.47517 6.19445 6.41617 6.29945 6.36617 6.43245C6.24445 6.77577 6.21412 7.14486 6.27817 7.50345C6.41217 8.36845 7.00817 9.51145 8.53417 11.0294L9.59217 9.96545C8.16317 8.54545 7.82317 7.68145 7.76017 7.27345C7.73017 7.07945 7.76117 6.98345 7.77017 6.96145C7.77617 6.94811 7.77617 6.94612 7.77017 6.95545C7.76126 6.96925 7.75122 6.98229 7.74017 6.99445L7.73017 7.00445L7.72017 7.01345L7.19117 6.48345ZM8.53417 11.0294C10.0612 12.5474 11.2102 13.1394 12.0762 13.2714C12.5192 13.3394 12.8762 13.2854 13.1472 13.1844C13.299 13.1289 13.4408 13.0492 13.5672 12.9484L13.6172 12.9034L13.6242 12.8974L13.6272 12.8944L13.6282 12.8924C13.6282 12.8924 13.6292 12.8914 13.1002 12.3594C12.5702 11.8274 12.5732 11.8264 12.5732 11.8264L12.5752 11.8244L12.5772 11.8224L12.5832 11.8174L12.5932 11.8074L12.6312 11.7774C12.6405 11.7714 12.6382 11.7721 12.6242 11.7794C12.5992 11.7884 12.5012 11.8194 12.3042 11.7894C11.8902 11.7254 11.0202 11.3854 9.59217 9.96545L8.53417 11.0294ZM6.97417 1.40945C5.95417 0.0494481 3.95017 -0.166552 2.73317 1.04345L3.79017 2.10745C4.32217 1.57845 5.26617 1.63345 5.77317 2.31045L6.97417 1.40945ZM1.75217 4.70445C1.73217 4.35845 1.89117 3.99645 2.22117 3.66845L1.16217 2.60445C0.625174 3.13845 0.202173 3.89445 0.253173 4.78845L1.75217 4.70445ZM16.4722 16.7644C16.1982 17.0384 15.9022 17.1924 15.6072 17.2194L15.7462 18.7124C16.4812 18.6434 17.0822 18.2734 17.5302 17.8284L16.4722 16.7644ZM8.00617 6.72945C8.99117 5.75045 9.06417 4.20345 8.23517 3.09545L7.03417 3.99445C7.43717 4.53345 7.37717 5.24045 6.94917 5.66745L8.00617 6.72945ZM17.5262 13.2884C18.3432 13.7324 18.4702 14.7784 17.8932 15.3524L18.9512 16.4154C20.2912 15.0824 19.8782 12.8594 18.2412 11.9704L17.5262 13.2884ZM14.0852 12.4394C14.4692 12.0574 15.0872 11.9634 15.6152 12.2494L16.3312 10.9324C15.2472 10.3424 13.9032 10.5054 13.0272 11.3754L14.0852 12.4394Z" fill="black"/>
</svg>
